<svg xmlns="http://www.w3.org/2000/svg" xmlns:xlink="http://www.w3.org/1999/xlink" width="1080" zoomAndPan="magnify" viewBox="0 0 810 809.999993" height="1080" preserveAspectRatio="xMidYMid meet" version="1.0"><defs><g/></defs><rect x="-81" width="972" fill="#ffffff" y="-80.999999" height="971.999992" fill-opacity="1"/><rect x="-81" width="972" fill="#202024" y="-80.999999" height="971.999992" fill-opacity="1"/><g fill="#64ceef" fill-opacity="0.4"><g transform="translate(13.217011, 468.294606)"><g><path d="M 83.609375 -18.609375 L 8.03125 -51.828125 L 8.03125 -59.859375 L 83.609375 -97.5625 L 83.609375 -85.046875 L 23.109375 -56.484375 L 83.609375 -31.125 Z M 83.609375 -18.609375 "/></g></g></g><g fill="#64ceef" fill-opacity="0.4"><g transform="translate(105.002857, 468.294606)"><g><path d="M 11.234375 -128.375 L 35.304688 -128.375 L 35.304688 -0.480469 L 11.234375 -0.480469 Z M 11.234375 -128.375 "/></g></g></g><g fill="#64ceef" fill-opacity="0.4"><g transform="translate(151.537633, 468.294606)"><g><path d="M 115.539062 -128.375 L 85.53125 -128.375 L 63.546875 -90.34375 L 41.722656 -128.375 L 11.234375 -128.375 L 48.460938 -64.1875 L 11.234375 0.160156 L 41.722656 0 L 63.546875 -37.871094 L 85.53125 0.160156 L 115.539062 0.160156 L 78.628906 -64.1875 Z M 115.539062 -128.375 "/></g></g></g><g fill="#5f489a" fill-opacity="1"><g transform="translate(22.580495, 464.700289)"><g><path d="M 83.609375 -18.609375 L 8.03125 -51.828125 L 8.03125 -59.859375 L 83.609375 -97.5625 L 83.609375 -85.046875 L 23.109375 -56.484375 L 83.609375 -31.125 Z M 83.609375 -18.609375 "/></g></g></g><g fill="#5f489a" fill-opacity="1"><g transform="translate(114.366341, 464.700289)"><g><path d="M 11.234375 -128.375 L 35.304688 -128.375 L 35.304688 -0.480469 L 11.234375 -0.480469 Z M 11.234375 -128.375 "/></g></g></g><g fill="#5f489a" fill-opacity="1"><g transform="translate(160.901117, 464.700289)"><g><path d="M 115.539062 -128.375 L 85.53125 -128.375 L 63.546875 -90.34375 L 41.722656 -128.375 L 11.234375 -128.375 L 48.460938 -64.1875 L 11.234375 0.160156 L 41.722656 0 L 63.546875 -37.871094 L 85.53125 0.160156 L 115.539062 0.160156 L 78.628906 -64.1875 Z M 115.539062 -128.375 "/></g></g></g><g fill="#ffffff" fill-opacity="0.4"><g transform="translate(281.616127, 467.83863)"><g><path d="M 53.277344 -128.375 L 11.234375 -128.375 L 11.234375 0 L 53.277344 0 C 87.136719 0 111.207031 -28.722656 111.207031 -64.1875 C 111.207031 -99.652344 86.171875 -128.375 53.277344 -128.375 Z M 53.277344 -104.464844 C 72.371094 -104.464844 87.296875 -86.8125 87.296875 -64.1875 C 87.296875 -52.632812 83.765625 -42.203125 77.027344 -34.660156 C 72.691406 -29.6875 65.152344 -23.910156 53.277344 -23.910156 L 35.144531 -23.910156 L 35.144531 -104.464844 Z M 53.277344 -104.464844 "/></g></g></g><g fill="#ffffff" fill-opacity="0.4"><g transform="translate(404.050737, 467.83863)"><g><path d="M 85.691406 -104.625 L 85.691406 -128.535156 L 11.234375 -128.535156 L 11.234375 0 L 85.691406 0 L 85.691406 -23.910156 L 35.304688 -23.910156 L 35.304688 -52.472656 L 65.3125 -52.472656 L 65.3125 -76.382812 L 35.304688 -76.382812 L 35.304688 -104.625 Z M 85.691406 -104.625 "/></g></g></g><g fill="#ffffff" fill-opacity="0.4"><g transform="translate(500.971456, 467.83863)"><g><path d="M 86.976562 -128.375 L 62.261719 -44.609375 L 37.550781 -128.375 L 11.234375 -128.375 L 49.105469 0 L 75.421875 0 L 113.292969 -128.375 Z M 86.976562 -128.375 "/></g></g></g><g fill="#ffffff" fill-opacity="0.4"><g transform="translate(625.492117, 467.83863)"><g><path d="M 1.605469 0 L 27.921875 0 L 65.792969 -128.375 L 39.476562 -128.375 Z M 1.605469 0 "/></g></g></g><g fill="#ffffff" fill-opacity="0.4"><g transform="translate(692.887329, 467.83863)"><g><path d="M 8.03125 -31.125 L 68.515625 -56.328125 L 8.03125 -85.046875 L 8.03125 -97.5625 L 83.609375 -59.859375 L 83.609375 -51.828125 L 8.03125 -18.609375 Z M 8.03125 -31.125 "/></g></g></g><g fill="#ffffff" fill-opacity="1"><g transform="translate(290.979614, 464.244313)"><g><path d="M 53.277344 -128.375 L 11.234375 -128.375 L 11.234375 0 L 53.277344 0 C 87.136719 0 111.207031 -28.722656 111.207031 -64.1875 C 111.207031 -99.652344 86.171875 -128.375 53.277344 -128.375 Z M 53.277344 -104.464844 C 72.371094 -104.464844 87.296875 -86.8125 87.296875 -64.1875 C 87.296875 -52.632812 83.765625 -42.203125 77.027344 -34.660156 C 72.691406 -29.6875 65.152344 -23.910156 53.277344 -23.910156 L 35.144531 -23.910156 L 35.144531 -104.464844 Z M 53.277344 -104.464844 "/></g></g></g><g fill="#ffffff" fill-opacity="1"><g transform="translate(413.414224, 464.244313)"><g><path d="M 85.691406 -104.625 L 85.691406 -128.535156 L 11.234375 -128.535156 L 11.234375 0 L 85.691406 0 L 85.691406 -23.910156 L 35.304688 -23.910156 L 35.304688 -52.472656 L 65.3125 -52.472656 L 65.3125 -76.382812 L 35.304688 -76.382812 L 35.304688 -104.625 Z M 85.691406 -104.625 "/></g></g></g><g fill="#ffffff" fill-opacity="1"><g transform="translate(510.334943, 464.244313)"><g><path d="M 86.976562 -128.375 L 62.261719 -44.609375 L 37.550781 -128.375 L 11.234375 -128.375 L 49.105469 0 L 75.421875 0 L 113.292969 -128.375 Z M 86.976562 -128.375 "/></g></g></g><g fill="#ffffff" fill-opacity="1"><g transform="translate(634.855604, 464.244313)"><g><path d="M 1.605469 0 L 27.921875 0 L 65.792969 -128.375 L 39.476562 -128.375 Z M 1.605469 0 "/></g></g></g><g fill="#ffffff" fill-opacity="1"><g transform="translate(702.250816, 464.244313)"><g><path d="M 8.03125 -31.125 L 68.515625 -56.328125 L 8.03125 -85.046875 L 8.03125 -97.5625 L 83.609375 -59.859375 L 83.609375 -51.828125 L 8.03125 -18.609375 Z M 8.03125 -31.125 "/></g></g></g></svg>